# xmcd
# Copyright (C) 1995-1998 Ti Kan
#
# Track frame offsets:
#       150
#       21075
#       35400
#       64537
#       90187
#       121941
#       148191
#       170779
#       199713
#       220638
#       238011
#       280738
#       300084
#
# Disc length: 4391 seconds
#
# Revision: 0
# Processed by: cddbd v1.5.2PL0 Copyright (c) Steve Scherf et al.
# Submitted via: CD-Transfer v1.0
#
DISCID=a711250d
DTITLE=Punk Data - Punk Data
DYEAR=14
DGENRE=
TTITLE0=Miles On Mars
TTITLE1=Prelude
TTITLE2=Joe Davis
TTITLE3=Indian Woman
TTITLE4=Sherezada
TTITLE5=Revelation
TTITLE6=Geology
TTITLE7=Small Dog Louis
TTITLE8=Lullaby
TTITLE9=We's Got The Hole World In His Hands
TTITLE10=So Cute
TTITLE11=Prometheus
TTITLE12=Toillet Incident
EXTD=
EXTT0=
EXTT1=
EXTT2=
EXTT3=
EXTT4=
EXTT5=
EXTT6=
EXTT7=
EXTT8=
EXTT9=
EXTT10=
EXTT11=
EXTT12=
PLAYORDER=
